<svg width="14" height="17" viewBox="0 0 14 17" fill="none" xmlns="http://www.w3.org/2000/svg">
<path d="M4.89937 12.8628V16.1479H3.5329C3.29923 16.1479 3.10958 16.3387 3.10958 16.5739C3.10958 16.8091 3.29923 17 3.5329 17H7.11256C7.34622 17 7.53587 16.8091 7.53587 16.5739C7.53587 16.3387 7.34622 16.1479 7.11256 16.1479H5.74608V12.7794L9.10055 6.43958C9.5696 6.67819 10.0869 6.80345 10.6203 6.80345C11.5253 6.80345 12.3753 6.45066 13.012 5.809C13.6486 5.16819 14 4.31263 14 3.40173C14 2.49078 13.6495 1.63522 13.012 0.994454C12.3753 0.35279 11.5253 0 10.6203 0C9.71525 0 8.86517 0.35279 8.22855 0.994454C7.66977 1.55686 7.33112 2.28461 7.2566 3.07027H0.423471C0.274463 3.07027 0.137311 3.14867 0.0602602 3.27734C-0.0159366 3.40517 -0.0201695 3.56451 0.0492539 3.6966L4.89937 12.8628ZM3.23319 7.90074H7.36814L5.30064 11.8087L3.23319 7.90074ZM10.6201 0.851915C12.017 0.851915 13.1533 1.9955 13.1533 3.40164C13.1533 4.80768 12.0171 5.95136 10.6201 5.95136C10.2264 5.95136 9.84457 5.86104 9.49829 5.68806L10.5515 3.6966C10.6209 3.56452 10.6175 3.40517 10.5405 3.27734C10.4643 3.14952 10.3263 3.07027 10.1773 3.07027H8.10895C8.27151 1.82016 9.33487 0.852129 10.6201 0.852129L10.6201 0.851915ZM9.47289 3.92214L7.81856 7.04865H2.78198L1.12766 3.92214H9.47289Z" fill="#2C3E50"/>
</svg>
