<svg width="14" height="17" viewBox="0 0 14 17" fill="none" xmlns="http://www.w3.org/2000/svg">
<path d="M12.1906 3.13334C12.169 4.98731 12.0121 6.55115 11.4109 7.67763C11.0928 8.2735 10.651 8.74354 10.0273 9.07033C9.39696 9.40053 8.55076 9.6 7.40449 9.6C6.25822 9.6 5.41202 9.40053 4.78172 9.07033C4.15794 8.74354 3.71616 8.2735 3.39811 7.67763C2.79685 6.55115 2.63994 4.98731 2.61836 3.13334L3.66468 3.13334L7.40449 3.13333L11.1443 3.13334L12.1906 3.13334Z" stroke="#2C3E50"/>
<path d="M2.61835 16C2.63992 14.146 2.79683 12.5822 3.3981 11.4557C3.71615 10.8598 4.15792 10.3898 4.7817 10.063C5.412 9.7328 6.2582 9.53333 7.40447 9.53333C8.55074 9.53333 9.39694 9.7328 10.0272 10.063C10.651 10.3898 11.0928 10.8598 11.4108 11.4557C12.0121 12.5822 12.169 14.146 12.1906 16L11.1443 16L7.40447 16L3.66466 16L2.61835 16Z" stroke="#2C3E50"/>
<line x1="1.55774" y1="3" x2="13.2511" y2="3" stroke="#2C3E50" stroke-linecap="round"/>
<line x1="1.55774" y1="16" x2="13.2511" y2="16" stroke="#2C3E50" stroke-linecap="round"/>
</svg>
