<svg width="197" height="129" viewBox="0 0 197 129" fill="none" xmlns="http://www.w3.org/2000/svg">
<circle cx="132.5" cy="64.5" r="64.5" fill="url(#paint0_linear_1287_13311)"/>
<path d="M25.84 65.32C23.12 68.04 20.72 69.48 17.16 69.48C11.48 69.48 7.24 65.52 7.24 59.6C7.24 53.96 11.64 49.8 17.04 49.8C20.4 49.8 23.24 51.24 25.84 54L29.68 50.32C26.52 46.64 21.92 44.56 17.16 44.56C8.92 44.56 1.88 50.52 1.88 59.6C1.88 68.44 8.08 74.72 17.08 74.72C22.48 74.72 25.76 72.92 29.56 69.2L25.84 65.32ZM34.1989 52.76H29.5989V74H34.9189V65.4C34.9189 64.24 34.9189 62.92 34.9589 61.76C35.0789 58.64 36.2789 56.88 37.7989 56.88C38.3589 56.88 38.9589 57.12 39.3589 57.32L40.9989 52.76C40.4789 52.52 39.7989 52.2 38.6789 52.2C36.9189 52.2 35.1989 53.24 34.1989 55.44V52.76ZM55.7269 67.76C54.2469 69.2 52.7269 69.84 50.4469 69.84C47.4069 69.84 45.0069 68.08 44.4869 64.92H61.6069C61.6069 64.44 61.6469 64.2 61.6469 63.72C61.6469 57 57.0869 52.2 50.3669 52.2C43.5269 52.2 39.3269 57.56 39.3269 63.36C39.3269 69.6 43.6869 74.56 50.4469 74.56C54.9269 74.56 57.9269 73.12 60.2069 69.88L55.7269 67.76ZM44.7269 60.72C45.7669 58.04 47.8069 56.72 50.4469 56.72C53.2869 56.72 55.5669 58.24 56.2869 60.72H44.7269ZM68.1409 74H71.4609L76.1409 61.88L80.6609 74H84.0609L91.7809 52.76H86.5409L82.2609 64.68L77.7409 52.76H74.5409L69.9409 64.84L65.7009 52.76H60.4609L68.1409 74ZM97.0811 74H100.401L105.081 61.88L109.601 74H113.001L120.721 52.76H115.481L111.201 64.68L106.681 52.76H103.481L98.8811 64.84L94.6411 52.76H89.4011L97.0811 74ZM126.021 74H129.341L134.021 61.88L138.541 74H141.941L149.661 52.76H144.421L140.141 64.68L135.621 52.76H132.421L127.821 64.84L123.581 52.76H118.341L126.021 74ZM154.961 74H158.281L162.961 61.88L167.481 74H170.881L178.601 52.76H173.361L169.081 64.68L164.561 52.76H161.361L156.761 64.84L152.521 52.76H147.281L154.961 74Z" fill="#262626"/>
<defs>
<linearGradient id="paint0_linear_1287_13311" x1="132.5" y1="0" x2="132.5" y2="129" gradientUnits="userSpaceOnUse">
<stop stop-color="#EB6530"/>
<stop offset="1" stop-color="#E1E1E1" stop-opacity="0"/>
</linearGradient>
</defs>
</svg>
