<svg width="19" height="16" viewBox="0 0 19 16" fill="none" xmlns="http://www.w3.org/2000/svg">
<path d="M18.8418 5.30874L9.65833 0.0421502C9.56075 -0.0140501 9.44019 -0.0140501 9.34262 0.0421502L0.158267 5.30874C0.0598631 5.36494 0 5.46838 0 5.57998C0 5.69238 0.0598631 5.79583 0.158267 5.85202L3.12098 7.55106V10.2211C3.12098 11.0608 3.56217 11.8264 4.31085 12.448L3.37848 14.5029C3.3711 14.5192 3.36454 14.5355 3.36044 14.5534C3.31616 14.6512 3.29238 14.7563 3.29156 14.8638C3.29156 15.5007 4.06075 16 5.04232 16C6.02388 16 6.79307 15.5007 6.79307 14.8638C6.79225 14.7571 6.76847 14.652 6.72501 14.5551C6.72009 14.5372 6.71435 14.5192 6.70615 14.5021L6.24857 13.4938C7.1957 13.8212 8.30192 14.0102 9.4991 14.0102C13.0761 14.0102 15.8782 12.3453 15.8782 10.2194L15.879 7.55112L18.8426 5.85208C18.941 5.79588 19 5.69244 19 5.58003C19 5.46845 18.9402 5.36496 18.8418 5.30874ZM3.75158 10.2202V7.91285L4.72659 8.4716V11.53L4.58227 11.8477C4.05827 11.372 3.75158 10.8165 3.75158 10.2202ZM5.04231 15.3728C4.35922 15.3728 3.92297 15.0714 3.92297 14.8637C3.92625 14.832 3.93691 14.801 3.95331 14.7741C3.96479 14.7521 3.97299 14.7285 3.97873 14.7049L5.04231 12.3616L6.10507 14.7032C6.11081 14.7285 6.11983 14.7513 6.13131 14.7741C6.14771 14.801 6.15837 14.8319 6.16165 14.8637C6.16165 15.0714 5.72539 15.3728 5.04231 15.3728ZM15.2475 10.2202C15.2475 11.9649 12.6694 13.3838 9.49992 13.3838C8.12308 13.3838 6.86427 13.1125 5.87383 12.6662L5.35804 11.53V8.83393L9.34184 11.1186C9.43943 11.1748 9.55998 11.174 9.65755 11.1178L15.2477 7.91274L15.2475 10.2202ZM9.49992 10.4841L5.66054 8.28246L8.7341 6.41319C8.97848 6.50686 9.23841 6.5541 9.5 6.55165C10.3348 6.55165 10.9638 6.13382 10.9638 5.57995C10.9638 5.02608 10.3348 4.60824 9.5 4.60824C8.6652 4.60824 8.03624 5.02608 8.03624 5.57995C8.0387 5.73633 8.09036 5.88783 8.18466 6.01244L5.03826 7.9257L0.947184 5.57995L9.50007 0.675121L18.053 5.57995L9.49992 10.4841ZM8.66676 5.57993C8.66676 5.45857 8.98247 5.23541 9.49908 5.23541C10.0157 5.23541 10.3314 5.45858 10.3314 5.57993C10.3314 5.70129 10.0157 5.92446 9.49908 5.92446C8.98329 5.92446 8.66676 5.70129 8.66676 5.57993Z" fill="#2C3E50"/>
</svg>
