<svg width="374" height="73" viewBox="0 0 374 73" fill="none" xmlns="http://www.w3.org/2000/svg">
<path fill-rule="evenodd" clip-rule="evenodd" d="M187 39.7488C199.853 39.7488 211.281 33.6485 218.547 24.1853C227.292 12.7958 238.389 3.49581e-06 252.749 3.10244e-06L366 0C370.418 0 374 3.58172 374 8V64.2705C374 68.6888 370.418 72.2705 366 72.2705H8C3.58172 72.2705 0 68.6888 0 64.2705V8C0 3.58173 3.58172 0 8 0L121.251 3.10244e-06C135.611 3.49581e-06 146.708 12.7958 155.453 24.1853C162.719 33.6485 174.147 39.7488 187 39.7488Z" fill="white"/>
</svg>
