<svg width="12" height="16" viewBox="0 0 12 16" fill="none" xmlns="http://www.w3.org/2000/svg">
<path d="M11.5 6.58824C11.5 8.11009 10.7672 9.71262 9.77418 11.1723C8.78806 12.6219 7.58603 13.8718 6.73584 14.6768C6.28624 15.1025 5.62822 15.128 5.16364 14.7432C4.31311 14.0387 3.13962 12.93 2.18188 11.5238C1.2239 10.1173 0.5 8.44045 0.5 6.58824C0.5 3.18076 3.00541 0.5 6 0.5C8.99459 0.5 11.5 3.18076 11.5 6.58824Z" stroke="#2C3E50"/>
<path d="M7.80771 6.11765C7.80771 7.1502 6.98927 7.97059 6.00001 7.97059C5.01076 7.97059 4.19232 7.1502 4.19232 6.11765C4.19232 5.0851 5.01076 4.26471 6.00001 4.26471C6.98927 4.26471 7.80771 5.0851 7.80771 6.11765Z" stroke="#2C3E50"/>
</svg>
