<svg width="15" height="15" viewBox="0 0 15 15" fill="none" xmlns="http://www.w3.org/2000/svg">
<path fill-rule="evenodd" clip-rule="evenodd" d="M8.74493 9.05186C10.4861 8.36764 11.7188 6.67151 11.7188 4.68749C11.7188 2.09866 9.62009 0 7.03127 0C4.44244 0 2.34378 2.09866 2.34378 4.68749C2.34378 6.67151 3.57639 8.36764 5.3176 9.05186C3.16221 9.44052 1.85386 10.5505 1.07758 11.689C0.603287 12.3847 0.335943 13.0777 0.186781 13.5959C0.112007 13.8556 0.0663305 14.0735 0.0391159 14.2287C0.0254965 14.3064 0.0164644 14.3686 0.0107115 14.4127C0.00783418 14.4348 0.00577439 14.4524 0.00436967 14.4652L0.00273271 14.4807L0.00224413 14.4857L0.00207563 14.4875C0.00204744 14.4878 0.00195513 14.4888 0.468779 14.5312L0.00195513 14.4888C-0.0214831 14.7466 0.168521 14.9746 0.426341 14.998C0.684002 15.0215 0.911884 14.8317 0.93556 14.5741L0.93625 14.5677C0.936991 14.5609 0.938307 14.5496 0.940351 14.5339C0.94444 14.5025 0.951429 14.4539 0.962529 14.3906C0.984753 14.2639 1.0233 14.0789 1.08769 13.8552C1.21685 13.4066 1.44755 12.8106 1.85216 12.2172C2.64627 11.0525 4.14382 9.84373 7.03127 9.84373C9.91871 9.84373 11.4163 11.0525 12.2104 12.2172C12.615 12.8106 12.8457 13.4066 12.9748 13.8552C13.0392 14.0789 13.0778 14.2639 13.1 14.3906C13.111 14.4532 13.1179 14.5014 13.122 14.5328C13.1221 14.5332 13.1221 14.5335 13.1222 14.5339C13.1242 14.5496 13.1255 14.5609 13.1263 14.5677L13.1269 14.5737C13.1269 14.5734 13.1269 14.5737 13.5938 14.5312C14.0606 14.4888 14.0606 14.4885 14.0605 14.4882L14.0603 14.4857L14.0598 14.4807L14.0582 14.4652C14.0568 14.4524 14.0547 14.4348 14.0518 14.4127C14.0461 14.3686 14.037 14.3064 14.0234 14.2287C13.9962 14.0735 13.9505 13.8556 13.8758 13.5959C13.7266 13.0777 13.4592 12.3847 12.985 11.689C12.2087 10.5505 10.9003 9.44052 8.74493 9.05186ZM10.7813 4.68749C10.7813 6.75855 9.10233 8.43748 7.03127 8.43748C4.9602 8.43748 3.28127 6.75855 3.28127 4.68749C3.28127 2.61643 4.9602 0.937498 7.03127 0.937498C9.10233 0.937498 10.7813 2.61643 10.7813 4.68749Z" fill="#2C3E50"/>
</svg>
