<svg width="28" height="21" viewBox="0 0 28 21" fill="none" xmlns="http://www.w3.org/2000/svg">
<path fill-rule="evenodd" clip-rule="evenodd" d="M8.01813 17.7756C9.71437 18.6419 11.5838 19.2225 13.5476 19.2225C19.5882 19.2225 24.7353 13.7293 26.6981 11.326C27.2276 10.6777 27.2276 9.76725 26.6981 9.11892C25.7062 7.90438 23.901 5.90066 21.5781 4.21562L20.8617 4.93206C20.9286 4.97985 20.9953 5.028 21.0615 5.07648C23.2544 6.68119 24.9709 8.58505 25.9236 9.75148C26.1525 10.0317 26.1525 10.4133 25.9236 10.6935C24.9709 11.8599 23.2544 13.7638 21.0615 15.3685C18.8589 16.9803 16.2687 18.2225 13.5476 18.2225C11.8846 18.2225 10.2706 17.7585 8.76397 17.0298L8.01813 17.7756ZM18.1991 3.35204C16.7304 2.65974 15.162 2.22247 13.5476 2.22247C10.8265 2.22247 8.23631 3.46468 6.0337 5.07648C3.84079 6.68119 2.12426 8.58505 1.17161 9.75148C0.942755 10.0317 0.942754 10.4132 1.17162 10.6935C2.12426 11.8599 3.8408 13.7638 6.0337 15.3685C6.06237 15.3894 6.09111 15.4104 6.11991 15.4312L5.40421 16.1469C3.13578 14.4794 1.37292 12.5208 0.397103 11.326C-0.132407 10.6777 -0.132409 9.76726 0.397101 9.11892C2.35988 6.71567 7.50697 1.22247 13.5476 1.22247C15.4615 1.22247 17.2857 1.77391 18.9473 2.60379L18.1991 3.35204Z" fill="#666666"/>
<path fill-rule="evenodd" clip-rule="evenodd" d="M11.1711 14.6227C11.8779 15.0053 12.6874 15.2225 13.5476 15.2225C16.309 15.2225 18.5476 12.9839 18.5476 10.2225C18.5476 9.36228 18.3304 8.55282 17.9478 7.84595L17.2014 8.59232C17.4239 9.0902 17.5476 9.64189 17.5476 10.2225C17.5476 12.4316 15.7567 14.2225 13.5476 14.2225C12.967 14.2225 12.4153 14.0988 11.9174 13.8763L11.1711 14.6227ZM15.0407 6.51044C14.5793 6.3247 14.0754 6.22247 13.5476 6.22247C11.3384 6.22247 9.54758 8.01333 9.54758 10.2225C9.54758 10.7503 9.6498 11.2542 9.83554 11.7156L9.08035 12.4707C8.73953 11.7949 8.54758 11.0311 8.54758 10.2225C8.54758 7.46105 10.7862 5.22247 13.5476 5.22247C14.3562 5.22247 15.12 5.41442 15.7958 5.75525L15.0407 6.51044Z" fill="#666666"/>
<line x1="3.54758" y1="20.0217" x2="22.3469" y2="1.22241" stroke="#666666" stroke-linecap="round"/>
</svg>
