<svg width="14" height="13" viewBox="0 0 14 13" fill="none" xmlns="http://www.w3.org/2000/svg">
<path d="M12.4541 1.11069C12.081 0.735531 11.573 0.52546 11.0447 0.526862H11.0391C10.5087 0.526862 10 0.73974 9.62764 1.11773L0.933399 9.90046C0.863845 9.97071 0.824501 10.0656 0.825205 10.1639V12.4121C0.825205 12.5112 0.864548 12.6067 0.934805 12.677C1.00506 12.7473 1.10061 12.7866 1.19968 12.7866H3.44788C3.54694 12.7866 3.64248 12.7472 3.71275 12.677L12.4568 3.93292C13.2353 3.15238 13.2339 1.88922 12.454 1.1108L12.4541 1.11069ZM3.29254 12.0377H1.57407V10.3178L9.02965 2.78704L10.7868 4.54344L3.29254 12.0377ZM11.9271 3.40314L11.3166 4.01366L9.55735 2.25445L10.1602 1.64533V1.64463C10.3927 1.40857 10.7096 1.27578 11.0412 1.27578C11.377 1.25681 11.7037 1.3917 11.9271 1.64323C12.4119 2.1294 12.4119 2.91627 11.9271 3.40316L11.9271 3.40314Z" fill="#34495E"/>
</svg>
