<svg width="25" height="25" viewBox="0 0 25 25" fill="none" xmlns="http://www.w3.org/2000/svg">
<path d="M20.3311 4.60353C19.8126 4.08205 19.1065 3.79005 18.3721 3.792H18.3643C17.627 3.792 16.92 4.0879 16.4024 4.6133L4.3174 16.8213C4.22072 16.919 4.16603 17.0508 4.16701 17.1875V20.3125C4.16701 20.4502 4.22169 20.583 4.31935 20.6807C4.41701 20.7784 4.54982 20.833 4.68753 20.833H7.81253C7.95022 20.833 8.08303 20.7783 8.1807 20.6807L20.335 8.52643C21.417 7.44148 21.415 5.68568 20.331 4.60368L20.3311 4.60353ZM7.59661 19.792H5.20793V17.4014L15.5712 6.93365L18.0136 9.37505L7.59661 19.792ZM19.5986 7.79003L18.75 8.63865L16.3047 6.19335L17.1426 5.34668V5.3457C17.4658 5.01757 17.9063 4.833 18.3672 4.833C18.834 4.80663 19.2881 4.99413 19.5986 5.34375C20.2725 6.01953 20.2725 7.11328 19.5986 7.79005L19.5986 7.79003Z" fill="#34495E"/>
</svg>
