<svg width="64" height="64" viewBox="0 0 64 64" fill="none" xmlns="http://www.w3.org/2000/svg">
<rect width="64" height="64" rx="32" fill="#F36F3B"/>
<path fill-rule="evenodd" clip-rule="evenodd" d="M31.1034 46.5C31.1034 47.3284 31.775 48 32.6034 48C33.4319 48 34.1034 47.3284 34.1034 46.5V34.1034H46.5C47.3284 34.1034 48 33.4319 48 32.6034C48 31.775 47.3284 31.1034 46.5 31.1034H34.1034V18.5C34.1034 17.6716 33.4319 17 32.6034 17C31.775 17 31.1034 17.6716 31.1034 18.5V31.1034H18.5C17.6716 31.1034 17 31.775 17 32.6034C17 33.4319 17.6716 34.1034 18.5 34.1034H31.1034V46.5Z" fill="white"/>
</svg>
