<svg width="20" height="16" viewBox="0 0 20 16" fill="none" xmlns="http://www.w3.org/2000/svg">
<path d="M17.4282 1.99977H13.1053V1.35042C13.1053 0.597603 12.4759 0 11.6829 0H8.34436C7.55141 0 6.92195 0.597603 6.92195 1.35042V1.99977H2.59905C1.20333 1.99977 0 3.09045 0 3.97418V13.0395C0 14.7795 1.06654 16 2.59905 16H17.4005C18.933 16 19.9995 14.7794 19.9995 13.0395V3.97418C20.0273 3.09149 18.8229 1.99977 17.4283 1.99977H17.4282ZM7.716 1.35042C7.716 1.01256 8.01737 0.727471 8.37216 0.727471H11.6831C12.0389 0.727471 12.3392 1.0136 12.3392 1.35042V1.99977H7.71621L7.716 1.35042ZM0.79405 3.97429C0.79405 3.55829 1.58701 2.72734 2.62684 2.72734H17.4283C18.4681 2.72734 19.2611 3.55829 19.2611 3.97429V7.32541C19.2611 7.74141 18.9052 8.10462 18.4403 8.10462L11.1624 8.10361V7.68761C11.1624 7.27162 10.8344 6.93479 10.424 6.85666H10.3417L10.2872 6.85768H10.2049C9.79453 6.90942 9.46645 7.27367 9.46645 7.68863V8.10462H9.41194L1.5869 8.10361C1.14872 8.10361 0.766144 7.76574 0.766144 7.3244V3.97431L0.79405 3.97429ZM10.6431 7.68878V9.14373C10.6431 9.32534 10.5063 9.4552 10.315 9.48159C10.1237 9.45521 9.9869 9.32534 9.9869 9.14373V7.68878C9.9869 7.50717 10.1237 7.37731 10.315 7.35092C10.4785 7.3773 10.6431 7.53253 10.6431 7.68878ZM17.4282 15.2728H2.59916C1.50482 15.2728 0.766363 14.3902 0.766363 13.0387V8.62316C1.01216 8.75303 1.28573 8.83115 1.58711 8.83115H9.41216H9.46666V9.14263C9.46666 9.55862 9.79475 9.89545 10.2051 9.97358H10.2874H10.3419H10.4242C10.8346 9.92183 11.1627 9.55759 11.1627 9.14263V8.8565H18.4405C18.7419 8.8565 19.0155 8.77838 19.2613 8.64851V13.064C19.2335 14.3637 18.5228 15.2728 17.4285 15.2728L17.4282 15.2728Z" fill="#2C3E50"/>
</svg>
