<svg width="19" height="12" viewBox="0 0 19 12" fill="none" xmlns="http://www.w3.org/2000/svg">
<path d="M16.4431 8.57899H0.991928C0.422169 8.57899 0 9.28548 0 10.2895C0 11.2926 0.422169 12 0.991928 12H16.4431C17.0129 12 17.435 11.2704 17.435 10.2895C17.4358 9.30863 17.0343 8.57899 16.4431 8.57899ZM5.76265 11.0645C5.82614 10.8364 5.86819 10.5629 5.86819 10.2662C5.86819 9.96956 5.82614 9.69607 5.76265 9.468H16.4224C16.4859 9.5366 16.6121 9.8101 16.6121 10.2662C16.6121 10.7224 16.4851 10.9959 16.4224 11.0645H5.76265ZM1.89959 11.0645C1.96308 10.8364 2.00513 10.5629 2.00513 10.2662C2.00513 9.96956 1.96308 9.69607 1.89959 9.468H4.83324C4.89673 9.5366 5.02289 9.8101 5.02289 10.2662C5.02289 10.7224 4.89591 10.9959 4.83324 11.0645H1.89959ZM1.1608 10.2894C1.1608 10.6769 1.07669 10.9282 1.0132 11.0422C0.928273 10.905 0.844169 10.6538 0.844169 10.2894C0.844169 9.90187 0.928273 9.65064 0.991763 9.5366C1.07669 9.65064 1.1608 9.90187 1.1608 10.2894ZM18.6388 0.915393C18.5118 0.938555 17.4564 1.14346 17.4564 2.55729C17.4564 3.12746 17.604 3.5836 17.8786 3.9257C18.7229 4.99743 18.7649 6.54847 17.9841 7.59803L17.942 7.64347C17.8579 7.7575 17.731 7.80294 17.6254 7.80294C17.5413 7.80294 17.4358 7.77977 17.3508 7.6889C17.1612 7.52943 17.1398 7.23277 17.2873 7.05013L17.3088 7.0047C17.8365 6.29732 17.815 5.24876 17.2247 4.49596C16.8025 3.97122 16.6129 3.31019 16.6129 2.53422C16.6129 0.732852 17.8579 0.0941277 18.5341 0.00221663C18.7666 -0.0209459 18.9777 0.139413 18.9983 0.389748C19.0189 0.665025 18.8499 0.893111 18.6388 0.915393Z" fill="#2C3E50"/>
</svg>
