<svg width="60" height="60" viewBox="0 0 60 60" fill="none" xmlns="http://www.w3.org/2000/svg">
<circle cx="30" cy="30" r="29" stroke="white" stroke-width="2"/>
<path d="M35.7695 33.5652C33.7985 35.1812 32.6296 34.7177 32.4395 34.6221M35.7695 33.5652C36.4715 32.9881 37.2832 32.9684 38.1258 33.532L32.4395 34.6221M35.7695 33.5652L35.6107 33.3721M35.7695 33.5652L35.611 33.3719C35.9989 33.053 36.4303 32.8785 36.8908 32.8708C37.3491 32.8632 37.8118 33.0212 38.2647 33.3241L35.6107 33.3721M32.4395 34.6221L32.4373 34.621C31.3232 34.0634 30.2706 33.5366 28.6477 31.9148L32.4395 34.6221ZM43.3272 36.707L38.2648 33.3242L43.3272 36.707ZM43.3272 36.707C43.3272 36.707 43.3272 36.707 43.3272 36.707C43.9477 37.1215 44.25 37.7212 44.25 38.5C44.25 39.3998 43.7828 39.8662 43.4524 40.196L43.4489 40.1995L43.4487 40.1996L41.7614 41.8869C41.7614 41.8869 41.7614 41.887 41.7614 41.887C41.1595 42.4892 40.6696 42.8322 40.2178 43.0229C39.7622 43.2152 39.3645 43.2442 38.9716 43.25L38.9679 43.25L38.9307 43.25C38.6533 43.25 38.0509 43.1547 37.2149 42.9183C36.3714 42.6797 35.2731 42.2926 33.9989 41.697C31.4499 40.5056 28.1944 38.479 24.8623 35.1357C21.5197 31.8046 19.4936 28.548 18.3026 25.9977C17.7071 24.7227 17.3201 23.6237 17.0816 22.7795C16.8452 21.9429 16.75 21.34 16.75 21.0625C16.75 20.6657 16.7742 20.2637 16.966 19.8022C17.1561 19.3448 17.5024 18.8484 18.1131 18.238L19.8005 16.5505L19.8007 16.5504L19.8067 16.5444C20.1366 16.215 20.6024 15.75 21.5 15.75C22.2783 15.75 22.8779 16.0524 23.2929 16.6727L23.293 16.6728C24.9697 19.1823 25.6131 20.1304 25.9358 20.606L25.9429 20.6165C26.2699 21.0973 26.2713 21.0995 26.6857 21.7513C26.9766 22.2086 27.1162 22.683 27.0832 23.1491C27.0501 23.6167 26.8449 24.0518 26.4888 24.4309C25.1808 25.8254 25.439 27.1232 25.602 27.4493C26.1167 28.4769 26.8294 29.7419 28.8244 31.738C30.4187 33.3311 31.4445 33.8445 32.545 34.3954L32.5514 34.3986L32.5518 34.3988C32.6085 34.4273 32.8979 34.5544 33.404 34.4877C33.9108 34.4208 34.6533 34.157 35.6107 33.3721M43.3272 36.707L35.6107 33.3721M26.0111 33.9866L26.0117 33.9872C29.4736 37.4616 32.704 39.3716 35.0711 40.4129C37.3812 41.429 38.8632 41.6156 38.9361 41.6248C38.9364 41.6248 38.9368 41.6249 38.9371 41.6249C39.1808 41.6215 39.3631 41.6161 39.5947 41.5176C39.8363 41.4148 40.1495 41.2016 40.613 40.738L42.3005 39.0505C42.4534 38.8977 42.5282 38.8167 42.5717 38.7432C42.6059 38.6853 42.625 38.6242 42.625 38.5C42.625 38.3423 42.5992 38.2562 42.5708 38.2033C42.5434 38.1522 42.5016 38.1095 42.4248 38.0584L42.4245 38.0582L37.362 34.6764L37.3615 34.6761C37.1596 34.5405 37.0159 34.4964 36.9266 34.4964C36.9014 34.4964 36.8712 34.4987 36.8304 34.5131C36.7882 34.528 36.7254 34.5593 36.6418 34.6282L36.6413 34.6287C35.1508 35.8512 33.9035 36.1226 33.0965 36.1226C32.633 36.1226 32.1816 36.0298 31.8247 35.8523L31.8241 35.852L31.8221 35.8509C30.6654 35.2718 29.4535 34.6649 27.6755 32.887C25.5186 30.73 24.7233 29.3253 24.1485 28.1757L24.1485 28.1756C23.7225 27.3224 23.4729 25.2695 25.3042 23.3191L25.3042 23.3191C25.3966 23.2208 25.4447 23.1422 25.4571 23.0581C25.4691 22.9774 25.4547 22.8436 25.3149 22.6237L25.3148 22.6236C25.0845 22.2609 24.9865 22.1066 24.8857 21.9541C24.8105 21.8402 24.7337 21.7273 24.5991 21.5294C24.5991 21.5294 24.5991 21.5293 24.5991 21.5293L24.8058 21.3888L26.0111 33.9866ZM26.0111 33.9866C22.5778 30.5653 20.6677 27.3299 19.6163 24.9488C19.0905 23.758 18.7792 22.7805 18.5996 22.0997C18.5098 21.7594 18.453 21.4933 18.4187 21.3119C18.4015 21.2213 18.3901 21.1519 18.383 21.1052C18.3794 21.0818 18.377 21.0644 18.3755 21.0531C18.3753 21.0516 18.3751 21.0503 18.375 21.0491C18.3751 20.808 18.3785 20.633 18.4748 20.4076C18.5765 20.1697 18.7907 19.8579 19.2614 19.387C19.2614 19.3869 19.2614 19.3869 19.2615 19.3869L20.9486 17.6998C20.9486 17.6997 20.9487 17.6997 20.9487 17.6996C21.1022 17.5468 21.1833 17.4718 21.2569 17.4283C21.3148 17.3941 21.3758 17.375 21.5 17.375C21.6574 17.375 21.7433 17.4008 21.7963 17.4292C21.8476 17.4567 21.8906 17.4988 21.9424 17.5761L26.0111 33.9866Z" fill="white" stroke="white" stroke-width="0.5"/>
</svg>
