<svg width="61" height="60" viewBox="0 0 61 60" fill="none" xmlns="http://www.w3.org/2000/svg">
<path fill-rule="evenodd" clip-rule="evenodd" d="M35.8125 31.7916C36.5417 32.3749 37.0885 32.8367 37.4531 33.177C37.8177 33.5173 38.1823 34.052 38.5469 34.7812C38.9115 35.5103 39.0938 36.2881 39.0938 37.1145C39.0938 39.059 38.1823 40.7482 36.3594 42.1822C34.5364 43.6162 32.0452 44.3333 28.8854 44.3333C26.1632 44.3333 24.0851 43.7742 22.651 42.6562C21.217 41.5381 20.5 40.2256 20.5 38.7187C20.5 36.7742 21.5208 35.1944 23.5625 33.9791C24.9722 33.1527 27.0382 32.618 29.7604 32.3749C29.3715 31.6944 29.1771 31.0381 29.1771 30.4062C29.1771 30.0659 29.2014 29.8228 29.25 29.677H28.9583C26.9167 29.677 25.2882 29.0451 24.0729 27.7812C22.9062 26.6145 22.3229 25.2291 22.3229 23.6249C22.3229 21.5832 23.1736 19.8576 24.875 18.4478C26.6736 17.0381 28.9826 16.3333 31.8021 16.3333H41.5L37.125 18.7395H36.1771C37.2951 20.052 37.8542 21.4617 37.8542 22.9687C37.8542 23.8923 37.6597 24.7308 37.2708 25.4843C36.8819 26.2378 36.5052 26.7846 36.1406 27.1249C35.776 27.4652 35.2535 27.8784 34.5729 28.3645V28.4374C34.0382 28.9721 33.7708 29.3853 33.7708 29.677C33.7708 30.0173 34.0139 30.3819 34.5 30.7708L35.8125 31.7916ZM26.6978 21.875C26.6978 23.1389 27.0381 24.3785 27.7186 25.5938C28.4964 26.9063 29.4929 27.5625 30.7082 27.5625C31.5346 27.5625 32.2151 27.2952 32.7499 26.7605C33.236 26.2744 33.479 25.5452 33.479 24.573C33.479 23.2605 33.1145 21.948 32.3853 20.6355C31.6561 19.323 30.6839 18.6667 29.4686 18.6667C28.5936 18.6667 27.8888 18.9827 27.354 19.6146C26.9165 20.1494 26.6978 20.9028 26.6978 21.875ZM34.7916 36.6769C35.2777 37.2116 35.5208 37.8192 35.5208 38.4998C35.5208 39.472 35.0954 40.2498 34.2447 40.8331C33.394 41.4165 32.2152 41.7081 30.7083 41.7081C28.9582 41.7081 27.5485 41.3678 26.4791 40.6873C25.4096 40.0067 24.8749 39.1074 24.8749 37.9894C24.8749 36.6283 25.7742 35.6074 27.5728 34.9269C28.7881 34.538 30.0277 34.3435 31.2916 34.3435C31.3888 34.3435 31.4982 34.3557 31.6197 34.38C31.7412 34.4043 31.8263 34.4165 31.8749 34.4165C33.3333 35.3887 34.3055 36.1421 34.7916 36.6769Z" fill="white"/>
<circle cx="30.5" cy="30" r="29" stroke="white" stroke-width="2"/>
</svg>
