<svg width="28" height="19" viewBox="0 0 28 19" fill="none" xmlns="http://www.w3.org/2000/svg">
<path d="M26.7632 9.18831C27.1424 9.65259 27.1424 10.2986 26.7632 10.7629C25.7962 11.9469 24.0492 13.8859 21.8092 15.5251C19.5643 17.1678 16.8707 18.4756 14 18.4756C11.1293 18.4756 8.43573 17.1678 6.19083 15.5251C3.95077 13.8859 2.20377 11.9469 1.23676 10.7629C0.85757 10.2986 0.857569 9.65259 1.23675 9.18831C2.20377 8.00429 3.95077 6.0653 6.19082 4.42609C8.43573 2.78334 11.1293 1.47559 14 1.47559C16.8707 1.47559 19.5643 2.78334 21.8092 4.42609C24.0492 6.0653 25.7962 8.00428 26.7632 9.18831Z" stroke="#666666"/>
<circle cx="14" cy="9.97559" r="4.5" stroke="#666666"/>
</svg>
