<svg width="60" height="60" viewBox="0 0 60 60" fill="none" xmlns="http://www.w3.org/2000/svg">
<path fill-rule="evenodd" clip-rule="evenodd" d="M35.3125 31.7916C36.0417 32.3749 36.5885 32.8367 36.9531 33.177C37.3177 33.5173 37.6823 34.052 38.0469 34.7812C38.4115 35.5103 38.5938 36.2881 38.5938 37.1145C38.5938 39.059 37.6823 40.7482 35.8594 42.1822C34.0364 43.6162 31.5452 44.3333 28.3854 44.3333C25.6632 44.3333 23.5851 43.7742 22.151 42.6562C20.717 41.5381 20 40.2256 20 38.7187C20 36.7742 21.0208 35.1944 23.0625 33.9791C24.4722 33.1527 26.5382 32.618 29.2604 32.3749C28.8715 31.6944 28.6771 31.0381 28.6771 30.4062C28.6771 30.0659 28.7014 29.8228 28.75 29.677H28.4583C26.4167 29.677 24.7882 29.0451 23.5729 27.7812C22.4062 26.6145 21.8229 25.2291 21.8229 23.6249C21.8229 21.5832 22.6736 19.8576 24.375 18.4478C26.1736 17.0381 28.4826 16.3333 31.3021 16.3333H41L36.625 18.7395H35.6771C36.7951 20.052 37.3542 21.4617 37.3542 22.9687C37.3542 23.8923 37.1597 24.7308 36.7708 25.4843C36.3819 26.2378 36.0052 26.7846 35.6406 27.1249C35.276 27.4652 34.7535 27.8784 34.0729 28.3645V28.4374C33.5382 28.9721 33.2708 29.3853 33.2708 29.677C33.2708 30.0173 33.5139 30.3819 34 30.7708L35.3125 31.7916ZM26.1978 21.875C26.1978 23.1389 26.5381 24.3785 27.2186 25.5938C27.9964 26.9063 28.9929 27.5625 30.2082 27.5625C31.0346 27.5625 31.7151 27.2952 32.2499 26.7605C32.736 26.2744 32.979 25.5452 32.979 24.573C32.979 23.2605 32.6145 21.948 31.8853 20.6355C31.1561 19.323 30.1839 18.6667 28.9686 18.6667C28.0936 18.6667 27.3888 18.9827 26.854 19.6146C26.4165 20.1494 26.1978 20.9028 26.1978 21.875ZM34.2916 36.6769C34.7777 37.2116 35.0208 37.8192 35.0208 38.4998C35.0208 39.472 34.5954 40.2498 33.7447 40.8331C32.894 41.4165 31.7152 41.7081 30.2083 41.7081C28.4582 41.7081 27.0485 41.3678 25.9791 40.6873C24.9096 40.0067 24.3749 39.1074 24.3749 37.9894C24.3749 36.6283 25.2742 35.6074 27.0728 34.9269C28.2881 34.538 29.5277 34.3435 30.7916 34.3435C30.8888 34.3435 30.9982 34.3557 31.1197 34.38C31.2412 34.4043 31.3263 34.4165 31.3749 34.4165C32.8333 35.3887 33.8055 36.1421 34.2916 36.6769Z" fill="#3F3F3F"/>
<circle cx="30" cy="30" r="29" stroke="#3F3F3F" stroke-width="2"/>
</svg>
